<svg xmlns="http://www.w3.org/2000/svg" xmlns:xlink="http://www.w3.org/1999/xlink" width="100.0" height="100.0" viewBox="-116.52909872115974 43.87921861426663 12.983347045950367 5.607285644553684" preserveAspectRatio="xMinYMin meet"><g transform="matrix(1,0,0,-1,0,93.36572287308694)"><path fill-rule="evenodd" fill="#66cc99" stroke="#555555" stroke-width="0.2596669409190073" opacity="0.6" d="M -116.04823401575418,49.00036855732097 L -113.05950171593753,49.0014020859668 L -110.0707694161209,49.00300405536785 L -107.08203711630425,49.00458018655276 L -104.09276221394853,49.00563955341474 L -104.07741431355785,47.17156545672772 L -104.02661638061494,45.956600857113486 L -104.07795691609692,45.04061025652388 L -105.74589128296557,45.051178086927564 L -107.54663408082433,45.04588125261765 L -109.10237891318732,45.05701752377655 L -111.07140601280457,45.04960195574266 L -111.0671943835728,44.54159678809741 L -111.08517778201036,44.506146755545174 L -111.19418921593007,44.56115631771988 L -111.29154761436796,44.701406154960026 L -111.4000164457486,44.72892385515544 L -111.54238501671271,44.53048635515465 L -111.77149247927873,44.49821442318837 L -112.33613501671589,44.56063955339695 L -112.36259335004932,44.46222178809708 L -112.69014441613137,44.4987311875113 L -112.87481014692638,44.3600833196722 L -113.05208614790365,44.61991242123574 L -113.174843512813,44.76543325456966 L -113.37857784712371,44.78977285417912 L -113.43942684614738,44.86279165300755 L -113.5029371814341,45.124222723972125 L -113.68021318241136,45.2490729843893 L -113.79449561242484,45.56499685320567 L -113.91410071496439,45.70258535418277 L -114.03579871301176,45.730103054378205 L -114.13793718143664,45.58933645281513 L -114.33531531457545,45.470273952814665 L -114.5136506824147,45.56923432065359 L -114.52370174849547,45.825368557308266 L -114.40727474654187,45.88991242124082 L -114.4914298165292,46.14708018654133 L -114.39404557987515,46.41008738869081 L -114.28451738163254,46.6318051214391 L -114.58561011438114,46.64133942319695 L -114.8433204822207,46.7863176539918 L -115.12164974654473,47.09536855731335 L -115.28833207890217,47.250397854188975 L -115.51906734908539,47.345120754579966 L -115.70479244674239,47.504930121442584 L -115.70427568241946,47.68484162046674 L -115.96779964889187,47.95048432066312 L -116.04823401575418,49.00036855732097 z" /></g></svg>